<svg xmlns:inkscape="http://www.inkscape.org/namespaces/inkscape" xmlns:sodipodi="http://sodipodi.sourceforge.net/DTD/sodipodi-0.dtd" xmlns:xlink="http://www.w3.org/1999/xlink" xmlns="http://www.w3.org/2000/svg" xmlns:svg="http://www.w3.org/2000/svg" width="430" height="345" version="1.1" id="svg3" sodipodi:docname="XLibre-1-Outline.svg" xml:space="preserve" inkscape:version="1.4 (e7c3feb100, 2024-10-09)"><sodipodi:namedview id="namedview1" pagecolor="#7f7f7f" bordercolor="#000000" borderopacity="1" inkscape:showpageshadow="false" inkscape:pageopacity="0.0" inkscape:pagecheckerboard="true" inkscape:deskcolor="#7f7f7f" inkscape:zoom="1.75" inkscape:cx="285.14286" inkscape:cy="196.57143" inkscape:window-width="1920" inkscape:window-height="1017" inkscape:window-x="0" inkscape:window-y="0" inkscape:window-maximized="1" inkscape:current-layer="g27" showgrid="false"/><style type="text/css" id="style1"><![CDATA[
#P1 {fill:url(#LO)}
rect {opacity:.40740739;fill:#000cff;width:.50507629;height:0}
]]></style><defs id="defs2"><linearGradient id="linearGradient16" inkscape:collect="always"><stop style="stop-color:#000000;stop-opacity:1;" offset="0" id="stop16"/><stop style="stop-color:#000000;stop-opacity:0;" offset="1" id="stop17"/></linearGradient><linearGradient id="linearGradient38"><stop style="stop-color:#e57617;stop-opacity:1;" offset="0" id="stop38"/><stop style="stop-color:#e5e017;stop-opacity:1;" offset="0.5" id="stop40"/><stop style="stop-color:#78e517;stop-opacity:1;" offset="1" id="stop39"/></linearGradient><linearGradient id="LO" gradientUnits="userSpaceOnUse" x1="319.20822" y1="235.14877" x2="657.65295" y2="269.49396" gradientTransform="matrix(1.5208483,0,0,1,-158.90989,0)" inkscape:swatch="gradient"><stop style="stop-color:#e54b17;stop-opacity:1;" offset="0" id="stop1"/><stop style="stop-color:#be3fb8;stop-opacity:1;" offset="0.5" id="stop3"/><stop style="stop-color:#4f89fe;stop-opacity:1;" offset="1" id="stop2"/></linearGradient><linearGradient xlink:href="#linearGradient38" id="linearGradient39" x1="433.32922" y1="217.87047" x2="1366.3938" y2="217.87047" gradientUnits="userSpaceOnUse"/><linearGradient inkscape:collect="always" xlink:href="#LO" id="linearGradient5" x1="342.07278" y1="238.20091" x2="628.25244" y2="238.20091" gradientUnits="userSpaceOnUse"/><linearGradient inkscape:collect="always" xlink:href="#linearGradient16" id="linearGradient17" x1="338.79446" y1="238.20094" x2="633.03723" y2="238.20094" gradientUnits="userSpaceOnUse"/><linearGradient inkscape:collect="always" xlink:href="#LO" id="linearGradient23" gradientUnits="userSpaceOnUse" x1="436.95612" y1="302.75027" x2="602.08386" y2="302.75027" gradientTransform="matrix(1.7330805,0,0,1.7330805,-415.20733,-286.48969)"/><linearGradient inkscape:collect="always" xlink:href="#LO" id="linearGradient1" gradientUnits="userSpaceOnUse" x1="342.07278" y1="238.20091" x2="628.25244" y2="238.20091"/><linearGradient inkscape:collect="always" xlink:href="#LO" id="linearGradient2" gradientUnits="userSpaceOnUse" gradientTransform="matrix(1.7330805,0,0,1.7330805,-415.20733,-286.48969)" x1="436.95612" y1="302.75027" x2="602.08386" y2="302.75027"/></defs><g transform="translate(142.2839,-24.99705)" id="g3" style="stroke:none"><g transform="translate(-413.2102,-40.70387)" id="g2" style="stroke:none;stroke-width:5;stroke-dasharray:none;stroke-opacity:1;paint-order:normal"><path id="path12" style="fill:url(#linearGradient1);stroke:none;stroke-width:10.5058;stroke-dasharray:none;stroke-opacity:1;paint-order:normal" d="M 575.50833,85.597404 342.07278,390.80444 h 55.39258 C 475.27702,289.06918 553.08787,187.33315 630.89896,85.597404 Z" sodipodi:nodetypes="ccccc"/><path d="M 342.0739,390.80192 453.17118,245.44599 338.79445,85.733013 l 73.51436,0.06108 91.13801,125.582867 -136.27013,179.42496 z m 217.44779,0.003 -90.5088,-125.79846 137.40484,-179.409507 h 24.48173 L 519.34879,231.53848 633.03722,390.8049 Z" id="X" style="stroke:none;stroke-width:5;stroke-dasharray:none;stroke-opacity:1;paint-order:normal" sodipodi:nodetypes="cccccccccccccc"/><path d="M 342.0739,390.80192 453.17118,245.44599 338.79445,85.733013 l 73.51436,0.06108 91.13801,125.582867 -136.27013,179.42496 z m 217.44779,0.003 -90.5088,-125.79846 137.40484,-179.409507 h 24.48173 L 519.34879,231.53848 633.03722,390.8049 Z" id="path10" style="fill:url(#linearGradient17);fill-opacity:1;stroke:none;stroke-width:5;stroke-dasharray:none;stroke-opacity:1;paint-order:normal" sodipodi:nodetypes="cccccccccccccc"/><path id="path1" style="fill:url(#linearGradient2);stroke:none;stroke-width:18.2074;stroke-dasharray:none;stroke-opacity:1;paint-order:normal" d="m 583.17667,390.80248 25.87095,-33.82554 z" sodipodi:nodetypes="ccc"/></g><g transform="translate(-413.2102,-40.70387)" id="g27" style="stroke:none;stroke-width:5;stroke-dasharray:none;stroke-opacity:1;paint-order:normal"><path id="path66" style="stroke:#ffffff;stroke-width:6;stroke-dasharray:none" d="M 162.29813,44.893534 78.483678,154.47752 -0.9010875,45.0908 -74.416712,45.0283 39.960241,204.74119 -71.135462,350.09861 l 55.390625,0.002 0.002,-0.002 83.501906,-109.17773 54.214841,75.35156 H 16.721959 L -9.0788219,350.09861 219.82743,350.10057 106.13798,190.83494 217.68876,44.893534 Z" sodipodi:nodetypes="cccccccccccccccc" transform="translate(413.2102,40.70387)"/><path id="path39" style="fill:url(#linearGradient5);stroke:none;stroke-width:10.5058;stroke-dasharray:none;stroke-opacity:1;paint-order:normal" d="M 575.50833,85.597404 342.07278,390.80444 h 55.39258 l 0.002,-0.002 L 630.899,85.597364 Z" sodipodi:nodetypes="cccccc"/><path d="M 342.0739,390.80192 453.17118,245.44599 338.79445,85.733013 l 73.51436,0.06108 91.13801,125.582867 -136.27013,179.42496 z m 217.44779,0.003 -90.5088,-125.79846 137.40484,-179.409507 h 24.48173 L 519.34879,231.53848 633.03722,390.8049 Z" id="path25" style="stroke:none;stroke-width:5;stroke-dasharray:none;stroke-opacity:1;paint-order:normal" sodipodi:nodetypes="cccccccccccccc"/><path id="path27" style="display:inline;fill:url(#linearGradient23);stroke:none;stroke-width:18.2074;stroke-dasharray:none;stroke-opacity:1;paint-order:normal" d="m 429.93216,356.97631 -25.80078,33.82617 H 583.1763 l 25.87109,-33.82617 z" sodipodi:nodetypes="ccccc"/></g></g></svg>
