<svg xmlns:inkscape="http://www.inkscape.org/namespaces/inkscape" xmlns:sodipodi="http://sodipodi.sourceforge.net/DTD/sodipodi-0.dtd" xmlns:xlink="http://www.w3.org/1999/xlink" xmlns="http://www.w3.org/2000/svg" xmlns:svg="http://www.w3.org/2000/svg" width="1440" height="345" version="1.1" id="svg3" sodipodi:docname="XLibre-1-Full-Outline.svg" xml:space="preserve" inkscape:version="1.4 (e7c3feb100, 2024-10-09)"><sodipodi:namedview id="namedview1" pagecolor="#7f7f7f" bordercolor="#000000" borderopacity="1" inkscape:showpageshadow="false" inkscape:pageopacity="0.0" inkscape:pagecheckerboard="true" inkscape:deskcolor="#7f7f7f" inkscape:zoom="0.71" inkscape:cx="818.30986" inkscape:cy="201.40845" inkscape:window-width="1920" inkscape:window-height="1017" inkscape:window-x="0" inkscape:window-y="0" inkscape:window-maximized="1" inkscape:current-layer="g199"/><style type="text/css" id="style1"><![CDATA[
#P1 {fill:url(#LO)}
rect {opacity:.40740739;fill:#000cff;width:.50507629;height:0}
]]></style><defs id="defs2"><linearGradient id="linearGradient287" inkscape:collect="always"><stop style="stop-color:#000000;stop-opacity:1;" offset="0" id="stop286"/><stop style="stop-color:#202020;stop-opacity:1;" offset="1" id="stop287"/></linearGradient><linearGradient id="linearGradient272" inkscape:swatch="gradient"><stop style="stop-color:#272727;stop-opacity:1;" offset="0" id="stop271"/><stop style="stop-color:#262626;stop-opacity:0;" offset="1" id="stop272"/></linearGradient><linearGradient id="linearGradient265" inkscape:collect="always"><stop style="stop-color:#272727;stop-opacity:1;" offset="0" id="stop265"/><stop style="stop-color:#272727;stop-opacity:0;" offset="1" id="stop266"/></linearGradient><linearGradient id="swatch260" inkscape:swatch="solid"><stop style="stop-color:#ffffff;stop-opacity:1;" offset="0" id="stop260"/></linearGradient><linearGradient id="swatch259" inkscape:swatch="solid"><stop style="stop-color:#000000;stop-opacity:1;" offset="0" id="stop259"/></linearGradient><linearGradient id="linearGradient242" inkscape:swatch="gradient"><stop style="stop-color:#ffffff;stop-opacity:0.28330794;" offset="0" id="stop241"/><stop style="stop-color:#ffffff;stop-opacity:0;" offset="1" id="stop242"/></linearGradient><linearGradient id="linearGradient235" inkscape:swatch="gradient"><stop style="stop-color:#ffffff;stop-opacity:1;" offset="0" id="stop235"/><stop style="stop-color:#ffffff;stop-opacity:0;" offset="1" id="stop236"/></linearGradient><linearGradient id="linearGradient38"><stop style="stop-color:#e57617;stop-opacity:1;" offset="0" id="stop38"/><stop style="stop-color:#e5e017;stop-opacity:1;" offset="0.5" id="stop40"/><stop style="stop-color:#78e517;stop-opacity:1;" offset="1" id="stop39"/></linearGradient><linearGradient id="LO" gradientUnits="userSpaceOnUse" x1="319.20822" y1="235.14877" x2="657.65295" y2="269.49396" gradientTransform="matrix(1.5208483,0,0,1,-158.90989,0)"><stop style="stop-color:#e54b17;stop-opacity:1;" offset="0" id="stop1"/><stop style="stop-color:#be3fb8;stop-opacity:1;" offset="0.5" id="stop3"/><stop style="stop-color:#4f89fe;stop-opacity:1;" offset="1" id="stop2"/></linearGradient><linearGradient xlink:href="#linearGradient38" id="linearGradient39" x1="245.39819" y1="216.72104" x2="1366.3938" y2="217.87047" gradientUnits="userSpaceOnUse"/><linearGradient inkscape:collect="always" xlink:href="#LO" id="linearGradient2" gradientUnits="userSpaceOnUse" gradientTransform="translate(106)" x1="342.07278" y1="238.20091" x2="628.25244" y2="238.20091"/><linearGradient inkscape:collect="always" xlink:href="#linearGradient265" id="linearGradient266" x1="46.715031" y1="197.49606" x2="1244.7463" y2="197.49606" gradientUnits="userSpaceOnUse"/><linearGradient inkscape:collect="always" xlink:href="#linearGradient287" id="linearGradient267" x1="46.715031" y1="197.49606" x2="1244.7463" y2="197.49606" gradientUnits="userSpaceOnUse"/><linearGradient inkscape:collect="always" xlink:href="#linearGradient287" id="linearGradient273" gradientUnits="userSpaceOnUse" x1="46.715031" y1="197.49606" x2="1244.7463" y2="197.49606"/><linearGradient inkscape:collect="always" xlink:href="#linearGradient287" id="linearGradient274" gradientUnits="userSpaceOnUse" x1="333.92523" y1="238.19994" x2="1531.9565" y2="238.19994"/><linearGradient inkscape:collect="always" xlink:href="#linearGradient287" id="linearGradient275" gradientUnits="userSpaceOnUse" x1="46.715031" y1="197.49606" x2="1244.7463" y2="197.49606"/><linearGradient inkscape:collect="always" xlink:href="#linearGradient287" id="linearGradient277" gradientUnits="userSpaceOnUse" x1="46.715031" y1="197.49606" x2="1244.7463" y2="197.49606"/><linearGradient inkscape:collect="always" xlink:href="#linearGradient287" id="linearGradient279" x1="46.715031" y1="197.49606" x2="1244.7463" y2="197.49606" gradientUnits="userSpaceOnUse"/><linearGradient inkscape:collect="always" xlink:href="#linearGradient287" id="linearGradient282" x1="568.67688" y1="79.596817" x2="1149.5527" y2="79.596817" gradientUnits="userSpaceOnUse"/></defs><g transform="translate(142.2839,-24.99705)" id="g3" style="stroke:none"><g id="g45" style="stroke:none" transform="translate(-126)"><path id="path9" style="fill:none;fill-opacity:1;stroke:#ffffff;stroke-width:6;stroke-dasharray:none;stroke-opacity:1;paint-order:markers stroke fill" d="m 606.41849,85.597404 -137.40625,179.408206 36.48828,50.71484 -57.42774,75.08399 h 55.39258 l 0.002,-0.002 28.94921,-37.84961 H 606.0181 L 570.48685,303.17748 736.89896,85.597404 H 681.50833 L 543.74466,265.71654 519.34817,231.53881 630.89896,85.597404 Z m -267.625,0.134766 114.37695,159.71289 -111.0957,145.35742 H 367.1763 L 503.44778,211.3767 412.30911,85.79467 Z m 197.13867,271.24414 -25.80078,33.82617 h 148.72656 30.31836 l 25.87109,-33.82617 z" transform="translate(-287.2102,-40.70387)"/><path id="path40" style="fill:url(#linearGradient279);stroke:#ffffff;stroke-width:6;stroke-dasharray:none;stroke-opacity:1;paint-order:markers stroke fill" d="m 589.7161,44.393534 v 143.402346 44.63476 7.36524 51.08789 52 l 59.42969,-77.92383 1.17187,-1.53711 c -0.18233,-1.0034 -0.34965,-2.01336 -0.50195,-3.0293 v -31.5 c 2.00249,-13.35738 6.6008,-25.72922 13.79492,-34.55859 11.81953,-14.5061 33.26178,-20.41333 52.91797,-17.7207 l 29.22461,-38.31641 c -6.55436,-1.564 -14.27476,-2.49805 -23.4043,-2.49805 -42.18758,0 -63.02734,33.02344 -63.02734,33.02344 l -9.50586,16.73242 v -24.55859 -7.36523 -44.63477 -64.603516 z m 160.84961,95.224606 -28.9082,37.9043 c 11.53507,2.51774 22.06952,8.12216 29.15039,16.8125 19.93812,24.4701 19.93812,76.14904 0,100.61914 -19.93814,24.47007 -67.25913,24.47007 -87.19727,0 -5.54783,-6.80886 -9.55128,-15.72449 -12.01172,-25.57422 l -1.7832,2.33594 v 0.002 l -17.69727,23.20313 -41.27148,54.11328 h 58.96875 v -25.82227 c 18.626,19.20945 32.70691,26.8845 76.59961,25.06055 59.97753,-2.49234 78.62462,-50.75019 79.29297,-89.10156 0.96996,-55.65844 -13.50906,-80.46734 -22.87305,-93.46289 -5.00719,-6.94909 -12.72221,-15.93953 -32.26953,-26.08985 z"/><path id="path41" style="fill:#000000;fill-opacity:1;stroke:#ffffff;stroke-width:6;stroke-dasharray:none;stroke-opacity:1;paint-order:markers stroke fill" d="m 842.2161,135.79978 v 18 79.13086 18 70.88282 l 60.09961,-78.80078 v -11.81836 c 10.02693,-19.5153 25.29306,-36.2092 43.40234,-45.08789 h 0.002 l 37.54882,-49.23438 c -3.43431,-0.35674 -6.83549,-0.5412 -10.18164,-0.54297 -8.65152,-0.005 -16.93248,1.21483 -24.45117,3.84375 -18.67522,6.52981 -34.89105,21.40797 -46.32031,39.78711 v -7.82812 -18 -0.33204 -18 z m 146.35547,1.75391 -34.35742,45.04883 c 18.55357,-6.22189 41.6135,-4.00248 63.40235,3.89062 v -40.82226 c -9.5159,-3.84856 -19.36251,-6.63438 -29.04493,-8.11719 z m -86.25586,113.09375 -60.09961,78.79883 v 19.58789 h 60.09961 z"/><path id="path42" style="stroke:#ffffff;stroke-width:6;stroke-dasharray:none;stroke-opacity:1;paint-order:markers stroke fill" d="m 507.76688,44.393534 c -8.62961,0 -17.26064,2.554475 -22.37695,7.666016 -10.23262,10.223083 -10.23262,31.814026 0,42.037109 10.23262,10.223081 34.51933,10.223081 44.75195,0 10.23262,-10.223083 10.23262,-31.814026 0,-42.037109 -5.11631,-5.111541 -13.74539,-7.666016 -22.375,-7.666016 z M 477.7161,135.29978 v 97.13086 l 60.09961,-78.79882 v -18.33204 z m 60.09961,25.69727 -60.09961,78.79883 v 109.23828 h 60.09961 z"/><path id="path45" style="fill:#000000;fill-opacity:1;stroke:#ffffff;stroke-width:6;stroke-dasharray:none;stroke-opacity:1;paint-order:markers stroke fill" d="m 1146.7552,130.74119 c -27.9462,0 -55.8942,9.47804 -72.4629,28.43164 -30.4903,34.87917 -32.9257,105.4432 -7.3067,146.02344 l 45.252,-59.33399 v 0.0957 l 0.096,-0.125 c -0.3338,-4.67627 -0.4239,-9.42292 -0.2695,-14.13672 h 11.0507 l 14.959,-19.61328 h -23.8711 c 1.9778,-10.2984 5.282,-19.63309 9.9141,-26.71289 8.084,-12.35512 21.7188,-18.53321 35.3535,-18.53321 4.0106,0 8.0215,0.53445 11.8906,1.60352 l 21.545,-28.25 c -13.9303,-6.29942 -30.0398,-9.44923 -46.1504,-9.44922 z m 50.4043,11.50586 -21.17,27.75781 c 7.4404,2.99638 14.0905,8.11835 18.8321,15.36524 4.6322,7.0798 7.9382,16.41449 9.916,26.71289 h -60.8399 l -14.9589,19.61328 h 20.0351 v -0.002 h 95 c -0.9522,-27.64856 -9.2053,-54.72813 -24.7598,-72.52149 -6.0283,-6.89606 -13.5624,-12.53856 -22.0546,-16.92578 z m -84.1661,110.35547 -5.0605,6.63476 v -0.0976 l -38.2207,50.11328 c 1.4488,2.02302 2.9759,3.95598 4.5801,5.79102 33.1374,37.90721 111.7846,37.90719 144.9218,0 6.0236,-6.89063 10.9518,-15.17429 14.7852,-24.34375 l -34.9727,-11.54102 c -1.2528,2.82621 -2.6547,5.44877 -4.205,7.81836 -16.1675,24.71025 -54.5375,24.71025 -70.7051,0 -5.7582,-8.80085 -9.4664,-21.08633 -11.1231,-34.375 z"/></g><g id="g46" transform="translate(-126)"><path id="path51" style="fill:#000000;fill-opacity:1;fill-rule:evenodd;stroke:#ffffff;stroke-width:6;stroke-dasharray:none;stroke-opacity:1;paint-order:markers stroke fill" d="m 1326.9075,182.55564 c 0,0 -38.9951,51.1524 -76.3066,51.85157 v -0.0254 l -134.5981,-1.3e-4 c -0.05,3.82665 0.06,7.66202 0.3301,11.45117 l -0.096,0.125 v -0.0957 l 0.3125,7.32227 -3.5563,-0.5819 c 0.024,0.19421 4.0485,0.38813 4.0736,0.5819 l 133.5336,1.3e-4 c 5.0881,0.0187 36.1487,-0.23517 63.6855,-8.76367 30.099,-9.32204 52.1074,-37.85352 52.1074,-37.85352 z M 275.32938,234.38182 v 18.80273 l 196.98627,-1.4e-4 v -13.38867 l 4.12891,-5.41406 z m 267.38672,0 v 18.80273 h 217.80919 c 0.49374,-6.23802 0.44366,-12.58733 -0.15039,-18.80273 z m 267.4285,0 c 0.44254,5.81397 0.69222,12.06884 0.70899,18.80273 h 234.71291 c -0.6446,-6.21422 -0.9136,-12.51587 -0.8047,-18.80273 z" sodipodi:nodetypes="cccccccccccscccccccccccccccccc"/><path id="path39" style="fill:url(#linearGradient2);stroke:none;stroke-width:6;stroke-dasharray:none;stroke-opacity:1;paint-order:markers stroke fill" d="M 681.50833,85.597404 448.07278,390.80444 h 55.39258 l 0.002,-0.002 233.4316,-305.205036 z M 535.93216,356.97631 510.13138,390.80248 h 148.72595 30.31897 l 25.87109,-33.82617 z" transform="translate(-287.2102,-40.70387)" sodipodi:nodetypes="cccccccccccc"/></g><g transform="translate(-413.2102,-40.70387)" id="g2" style="stroke:none;stroke-width:5;stroke-dasharray:none;stroke-opacity:1;paint-order:normal"><g id="g199"><path style="fill:url(#linearGradient266);fill-opacity:0;fill-rule:nonzero;stroke:none;stroke-width:6;stroke-dasharray:none;stroke-opacity:1;paint-order:markers stroke fill" d="m 589.7161,44.393534 v 143.402346 44.63476 7.36524 51.08789 52 l 59.42969,-77.92383 1.17187,-1.53711 c -0.18233,-1.0034 -0.34965,-2.01336 -0.50195,-3.0293 v -31.5 c 2.00249,-13.35738 6.6008,-25.72922 13.79492,-34.55859 11.81953,-14.5061 33.26178,-20.41333 52.91797,-17.7207 l 29.22461,-38.31641 c -6.55436,-1.564 -14.27476,-2.49805 -23.4043,-2.49805 -42.18758,0 -63.02734,33.02344 -63.02734,33.02344 l -9.50586,16.73242 v -24.55859 -7.36523 -44.63477 -64.603516 z" id="path7" transform="translate(287.2102,40.70387)"/><path id="path36" style="stroke:none;stroke-width:6;stroke-dasharray:none;stroke-opacity:1;paint-order:markers stroke fill;fill:url(#linearGradient267);fill-rule:nonzero" d="m 842.2161,135.79978 v 18 79.13086 18 70.88282 l 60.09961,-78.80078 v -11.81836 c 10.02693,-19.5153 25.29306,-36.2092 43.40234,-45.08789 h 0.002 l 37.54882,-49.23438 c -3.43431,-0.35674 -6.83549,-0.5412 -10.18164,-0.54297 -8.65152,-0.005 -16.93248,1.21483 -24.45117,3.84375 -18.67522,6.52981 -34.89105,21.40797 -46.32031,39.78711 v -7.82812 -18 -0.33204 -18 z m 146.35547,1.75391 -34.35742,45.04883 c 18.55357,-6.22189 41.6135,-4.00248 63.40235,3.89062 v -40.82226 c -9.5159,-3.84856 -19.36251,-6.63438 -29.04493,-8.11719 z m -86.25586,113.09375 -60.09961,78.79883 v 19.58789 h 60.09961 z" transform="translate(287.2102,40.70387)"/><path id="path38" style="fill:url(#linearGradient39);fill-opacity:1;fill-rule:evenodd;stroke:none;stroke-width:6;stroke-dasharray:none;stroke-opacity:1;paint-order:markers stroke fill" d="m 1326.9075,182.55564 c 0,0 -38.9951,51.1524 -76.3066,51.85157 v -0.0254 h -134.5977 c -0.05,3.82665 0.06,7.66202 0.3301,11.45117 l -0.092,0.11914 0.3047,7.1582 c 0.1174,0.0248 0.5183,0.0494 0.5215,0.0742 h 133.5332 c 5.0881,0.0187 36.1487,-0.23517 63.6855,-8.76367 30.099,-9.32204 52.1074,-37.85352 52.1074,-37.85352 z m -210.3613,70.55469 c -0.8004,-0.169 -3.5318,-0.33846 -3.5528,-0.50781 l 3.5567,0.58203 z m -0.3047,-7.1582 v -0.0899 0.0957 z m -847.01759,-11.57031 13.42188,18.80273 h 189.66992 v -13.38867 l 4.12891,-5.41406 z m 273.49219,0 v 18.80273 h 217.80859 c 0.49374,-6.23802 0.44366,-12.58733 -0.15039,-18.80273 z m 267.42773,0 c 0.44254,5.81397 0.69222,12.06884 0.70899,18.80273 h 234.71288 c -0.6446,-6.21422 -0.9136,-12.51587 -0.8047,-18.80273 z" transform="translate(287.2102,40.70387)"/><path id="path5" style="fill:url(#linearGradient275);fill-rule:nonzero;stroke:none;stroke-width:6;stroke-dasharray:none;stroke-opacity:1;paint-order:markers stroke fill" d="m 507.76688,44.393534 c -8.62961,0 -17.26064,2.554475 -22.37695,7.666016 -10.23262,10.223083 -10.23262,31.814026 0,42.037109 10.23262,10.223081 34.51933,10.223081 44.75195,0 10.23262,-10.223083 10.23262,-31.814026 0,-42.037109 -5.11631,-5.111541 -13.74539,-7.666016 -22.375,-7.666016 z M 477.7161,135.29978 v 97.13086 l 60.09961,-78.79882 v -18.33204 z m 60.09961,25.69727 -60.09961,78.79883 v 109.23828 h 60.09961 z" sodipodi:nodetypes="sssssscccccccccc" transform="translate(287.2102,40.70387)"/><path style="fill:url(#linearGradient277);fill-rule:nonzero;stroke:none;stroke-width:6;stroke-dasharray:none;stroke-opacity:1;paint-order:markers stroke fill" d="m 750.56571,139.61814 -28.9082,37.9043 c 11.53507,2.51774 22.06952,8.12216 29.15039,16.8125 19.93812,24.4701 19.93812,76.14904 0,100.61914 -19.93814,24.47007 -67.25913,24.47007 -87.19727,0 -5.54783,-6.80886 -9.55128,-15.72449 -12.01172,-25.57422 l -1.7832,2.33594 v 0.002 l -17.69727,23.20313 -41.27148,54.11328 h 58.96875 v -25.82227 c 18.626,19.20945 32.70691,26.8845 76.59961,25.06055 59.97753,-2.49234 78.62462,-50.75019 79.29297,-89.10156 0.96996,-55.65844 -13.50906,-80.46734 -22.87305,-93.46289 -5.00719,-6.94909 -12.72221,-15.93953 -32.26953,-26.08985 z" id="path37" transform="translate(287.2102,40.70387)"/><path id="path35" style="fill:url(#linearGradient273);fill-rule:nonzero;stroke:none;stroke-width:6;stroke-dasharray:none;stroke-opacity:1;paint-order:markers stroke fill" d="m 1146.7552,130.74119 c -27.9462,0 -55.8942,9.47804 -72.4629,28.43164 -30.4903,34.87917 -32.9257,105.4432 -7.3067,146.02344 l 45.252,-59.33399 v 0.0957 l 0.096,-0.125 c -0.3338,-4.67627 -0.4239,-9.42292 -0.2695,-14.13672 h 11.0507 l 14.959,-19.61328 h -23.8711 c 1.9778,-10.2984 5.282,-19.63309 9.9141,-26.71289 8.084,-12.35512 21.7188,-18.53321 35.3535,-18.53321 4.0106,0 8.0215,0.53445 11.8906,1.60352 l 21.545,-28.25 c -13.9303,-6.29942 -30.0398,-9.44923 -46.1504,-9.44922 z m 50.4043,11.50586 -21.17,27.75781 c 7.4404,2.99638 14.0905,8.11835 18.8321,15.36524 4.6322,7.0798 7.9382,16.41449 9.916,26.71289 h -60.8399 l -14.9589,19.61328 h 20.0351 v -0.002 h 95 c -0.9522,-27.64856 -9.2053,-54.72813 -24.7598,-72.52149 -6.0283,-6.89606 -13.5624,-12.53856 -22.0546,-16.92578 z m -84.1661,110.35547 -5.0605,6.63476 v -0.0976 l -38.2207,50.11328 c 1.4488,2.02302 2.9759,3.95598 4.5801,5.79102 33.1374,37.90721 111.7846,37.90719 144.9218,0 6.0236,-6.89063 10.9518,-15.17429 14.7852,-24.34375 l -34.9727,-11.54102 c -1.2528,2.82621 -2.6547,5.44877 -4.205,7.81836 -16.1675,24.71025 -54.5375,24.71025 -70.7051,0 -5.7582,-8.80085 -9.4664,-21.08633 -11.1231,-34.375 z" transform="translate(287.2102,40.70387)"/><path id="path8" style="display:inline;fill:url(#linearGradient274);fill-rule:nonzero;stroke:none;stroke-width:5;stroke-dasharray:none;stroke-opacity:1;paint-order:normal" d="M 606.41849,85.597404 469.01224,265.00561 532.28763,352.95287 H 606.0181 L 519.34817,231.53881 630.89896,85.597404 Z m -267.625,0.134766 114.37695,159.71289 -111.0957,145.35742 H 367.1763 L 503.44778,211.3767 412.30911,85.79467 Z"/></g></g><text xml:space="preserve" style="font-weight:bold;font-size:37.8288px;line-height:0;font-family:Hack;-inkscape-font-specification:'Hack, Bold';text-align:start;word-spacing:0px;writing-mode:lr-tb;direction:ltr;text-anchor:start;fill:url(#linearGradient282);fill-rule:evenodd;stroke:#ffffff;stroke-width:6;stroke-dasharray:none;stroke-opacity:1;paint-order:markers stroke fill" x="568.20428" y="93.36702" id="text46" transform="scale(1.005359,0.99466956)"><tspan id="tspan46" x="568.20428" y="93.36702" style="fill:url(#linearGradient282);stroke-width:6">MAKING X11 GREAT AGAIN.</tspan></text><g transform="translate(-413.2102,-40.70387)" id="g27" style="stroke:none;stroke-width:5;stroke-dasharray:none;stroke-opacity:1;paint-order:normal"/></g></svg>
